# xmcd
#
# Track frame offsets: 
#        150
#        15127
#        39021
#        54696
#        73568
#        112360
#        127519
#        154179
#        179296
#        194763
#        212115
#        231367
#        251121
#        290285
#        314434
#
# Disc length: 4483 seconds
#
# Revision: 0
# Processed by: cddbd v1.5.1PL0 Copyright (c) Steve Scherf et al.
# Submitted via: ExactAudioCopy v0.95a5
#
DISCID=d411810f
DTITLE=B. B. King - B. B. King Anthology [CDB)
DYEAR=2003
DGENRE=Blues
TTITLE0=Ain't Nobody Home
TTITLE1=Ghetto Woman
TTITLE2=I Got Some Help I Don't Need (Single Edit)
TTITLE3=Guess Who
TTITLE4=To Know You Is To Love You
TTITLE5=I Like To Live The Love
TTITLE6=Let The Good Times Roll
TTITLE7=Never Make Your Move Too Soon
TTITLE8=Better Not Look Down
TTITLE9=There Must Be A Better World Somewhere
TTITLE10=Into The Night
TTITLE11=When Love Comes To Town (With U2)
TTITLE12=Why Sing The Blues
TTITLE13=Playin' With My Friends (With Robert Cray)
TTITLE14=I'll Survive
EXTD=
EXTT0=
EXTT1=
EXTT2=
EXTT3=
EXTT4=
EXTT5=
EXTT6=
EXTT7=
EXTT8=
EXTT9=
EXTT10=
EXTT11=
EXTT12=
EXTT13=
EXTT14=
PLAYORDER=
